<svg width="159" height="74" viewBox="0 0 159 74" fill="none" xmlns="http://www.w3.org/2000/svg">
<path d="M20.8692 74C33.0364 74 41.6204 68.4441 41.6597 57.5293V14.2641H30.0832V21.4356H29.6107C28.0357 17.9681 24.5706 13.7125 17.4042 13.7125C7.95394 13.7125 0 20.9233 0 35.3845C0 49.6486 7.75706 56.4654 17.4042 56.426C24.2949 56.4654 28.075 52.9585 29.6107 49.4909H30.162V57.2929C30.1226 63.2428 26.5 65.5676 21.1055 65.5676C16.4591 65.5676 13.2303 64.0309 12.6003 60.6028H1.10253C1.77192 68.6805 9.05646 74 20.8692 74ZM11.9703 35.5421C11.9309 28.1736 15.081 23.0117 21.0267 23.0117C26.8938 23.0117 30.162 27.9372 30.162 35.5421C30.162 43.147 26.8544 47.639 21.0267 47.6784C15.1204 47.639 11.9309 42.9499 11.9703 35.5421Z" fill="url(#paint0_linear_1355_5363)"/>
<path d="M62.3715 0H50.7162V57.0564H62.3715V28.5282V0Z" fill="url(#paint1_linear_1355_5363)"/>
<path d="M90.6434 57.9233C103.598 57.8839 111.631 49.0181 111.67 35.7785C111.631 22.5783 103.598 13.7125 90.6434 13.7125C77.7281 13.7125 69.656 22.5783 69.6954 35.7785C69.656 49.0181 77.7281 57.8839 90.6434 57.9233ZM81.5082 35.7785C81.5082 28.2524 84.6189 22.6177 90.7221 22.6177C96.6679 22.6177 99.818 28.2524 99.7786 35.7785C99.818 43.2652 96.6679 48.8211 90.7221 48.8605C84.6189 48.8211 81.5082 43.2652 81.5082 35.7785Z" fill="url(#paint2_linear_1355_5363)"/>
<path d="M138.21 74C150.377 74 158.961 68.4441 159 57.5293V14.2641H147.423V21.4356H146.951C145.376 17.9681 141.911 13.7125 134.744 13.7125C125.294 13.7125 117.34 20.9233 117.34 35.3845C117.34 49.6486 125.097 56.4654 134.744 56.426C141.635 56.4654 145.415 52.9585 146.951 49.4909H147.502V57.2929C147.463 63.2428 143.84 65.5676 138.446 65.5676C133.799 65.5676 130.571 64.0309 129.941 60.6028H118.443C119.112 68.6805 126.397 74 138.21 74ZM129.311 35.5421C129.271 28.1736 132.421 23.0117 138.367 23.0117C144.234 23.0117 147.502 27.9372 147.502 35.5421C147.502 43.147 144.195 47.639 138.367 47.6784C132.461 47.639 129.271 42.9499 129.311 35.5421Z" fill="url(#paint3_linear_1355_5363)"/>
<defs>
<linearGradient id="paint0_linear_1355_5363" x1="79.5" y1="-1.39267e-06" x2="101.251" y2="74.0087" gradientUnits="userSpaceOnUse">
<stop stop-color="#119E6D"/>
<stop offset="1" stop-color="#00FF75"/>
</linearGradient>
<linearGradient id="paint1_linear_1355_5363" x1="79.5" y1="-1.39267e-06" x2="101.251" y2="74.0087" gradientUnits="userSpaceOnUse">
<stop stop-color="#119E6D"/>
<stop offset="1" stop-color="#00FF75"/>
</linearGradient>
<linearGradient id="paint2_linear_1355_5363" x1="79.5" y1="-1.39267e-06" x2="101.251" y2="74.0087" gradientUnits="userSpaceOnUse">
<stop stop-color="#119E6D"/>
<stop offset="1" stop-color="#00FF75"/>
</linearGradient>
<linearGradient id="paint3_linear_1355_5363" x1="79.5" y1="-1.39267e-06" x2="101.251" y2="74.0087" gradientUnits="userSpaceOnUse">
<stop stop-color="#119E6D"/>
<stop offset="1" stop-color="#00FF75"/>
</linearGradient>
</defs>
</svg>
