<svg width="214" height="74" viewBox="0 0 214 74" fill="none" xmlns="http://www.w3.org/2000/svg">
<circle cx="52" cy="37" r="37" fill="#050A0B" fill-opacity="0.63"/>
<ellipse cx="20" cy="53.5" rx="20" ry="19.5" fill="#050A0B" fill-opacity="0.63"/>
<circle cx="52" cy="37" r="37" fill="url(#paint0_angular_1100_5388)"/>
<ellipse cx="20" cy="53.5" rx="20" ry="19.5" fill="url(#paint1_angular_1100_5388)"/>
<path d="M75.8692 74C88.0364 74 96.6204 68.4441 96.6597 57.5293V14.2641H85.0832V21.4356H84.6107C83.0357 17.9681 79.5706 13.7125 72.4042 13.7125C62.9539 13.7125 55 20.9233 55 35.3845C55 49.6486 62.7571 56.4654 72.4042 56.426C79.2949 56.4654 83.075 52.9585 84.6107 49.4909H85.162V57.2929C85.1226 63.2428 81.5 65.5676 76.1055 65.5676C71.4591 65.5676 68.2303 64.0309 67.6003 60.6028H56.1025C56.7719 68.6805 64.0565 74 75.8692 74ZM66.9703 35.5421C66.9309 28.1736 70.081 23.0117 76.0267 23.0117C81.8938 23.0117 85.162 27.9372 85.162 35.5421C85.162 43.147 81.8544 47.639 76.0267 47.6784C70.1204 47.639 66.9309 42.9499 66.9703 35.5421Z" fill="url(#paint2_linear_1100_5388)"/>
<path d="M117.371 0H105.716V57.0564H117.371V28.5282V0Z" fill="url(#paint3_linear_1100_5388)"/>
<path d="M145.643 57.9233C158.598 57.8839 166.631 49.0181 166.67 35.7785C166.631 22.5783 158.598 13.7125 145.643 13.7125C132.728 13.7125 124.656 22.5783 124.695 35.7785C124.656 49.0181 132.728 57.8839 145.643 57.9233ZM136.508 35.7785C136.508 28.2524 139.619 22.6177 145.722 22.6177C151.668 22.6177 154.818 28.2524 154.779 35.7785C154.818 43.2652 151.668 48.8211 145.722 48.8605C139.619 48.8211 136.508 43.2652 136.508 35.7785Z" fill="url(#paint4_linear_1100_5388)"/>
<path d="M193.21 74C205.377 74 213.961 68.4441 214 57.5293V14.2641H202.423V21.4356H201.951C200.376 17.9681 196.911 13.7125 189.744 13.7125C180.294 13.7125 172.34 20.9233 172.34 35.3845C172.34 49.6486 180.097 56.4654 189.744 56.426C196.635 56.4654 200.415 52.9585 201.951 49.4909H202.502V57.2929C202.463 63.2428 198.84 65.5676 193.446 65.5676C188.799 65.5676 185.571 64.0309 184.941 60.6028H173.443C174.112 68.6805 181.397 74 193.21 74ZM184.311 35.5421C184.271 28.1736 187.421 23.0117 193.367 23.0117C199.234 23.0117 202.502 27.9372 202.502 35.5421C202.502 43.147 199.195 47.639 193.367 47.6784C187.461 47.639 184.271 42.9499 184.311 35.5421Z" fill="url(#paint5_linear_1100_5388)"/>
<defs>
<radialGradient id="paint0_angular_1100_5388" cx="0" cy="0" r="1" gradientUnits="userSpaceOnUse" gradientTransform="translate(52 37) rotate(90) scale(37)">
<stop stop-color="#0F9864"/>
<stop offset="1" stop-color="#00FF75" stop-opacity="0"/>
</radialGradient>
<radialGradient id="paint1_angular_1100_5388" cx="0" cy="0" r="1" gradientUnits="userSpaceOnUse" gradientTransform="translate(20 53.5) rotate(90) scale(19.5 20)">
<stop stop-color="#0F9864"/>
<stop offset="1" stop-color="#00FF75" stop-opacity="0"/>
</radialGradient>
<linearGradient id="paint2_linear_1100_5388" x1="134.5" y1="-1.39267e-06" x2="156.251" y2="74.0087" gradientUnits="userSpaceOnUse">
<stop stop-color="#119E6D"/>
<stop offset="1" stop-color="#00FF75"/>
</linearGradient>
<linearGradient id="paint3_linear_1100_5388" x1="134.5" y1="-1.39267e-06" x2="156.251" y2="74.0087" gradientUnits="userSpaceOnUse">
<stop stop-color="#119E6D"/>
<stop offset="1" stop-color="#00FF75"/>
</linearGradient>
<linearGradient id="paint4_linear_1100_5388" x1="134.5" y1="-1.39267e-06" x2="156.251" y2="74.0087" gradientUnits="userSpaceOnUse">
<stop stop-color="#119E6D"/>
<stop offset="1" stop-color="#00FF75"/>
</linearGradient>
<linearGradient id="paint5_linear_1100_5388" x1="134.5" y1="-1.39267e-06" x2="156.251" y2="74.0087" gradientUnits="userSpaceOnUse">
<stop stop-color="#119E6D"/>
<stop offset="1" stop-color="#00FF75"/>
</linearGradient>
</defs>
</svg>
