<svg width="325" height="330" viewBox="0 0 325 330" fill="none" xmlns="http://www.w3.org/2000/svg">
<mask id="mask0_2214_6393" style="mask-type:alpha" maskUnits="userSpaceOnUse" x="0" y="0" width="325" height="330">
<path d="M0 16C0 10.3995 0 7.59921 1.08993 5.46009C2.04867 3.57847 3.57847 2.04867 5.46009 1.08993C7.59921 0 10.3995 0 16 0H308.949C314.549 0 317.349 0 319.489 1.08993C321.37 2.04867 322.9 3.57847 323.859 5.46009C324.949 7.59921 324.949 10.3995 324.949 16V313.861C324.949 319.462 324.949 322.262 323.859 324.401C322.9 326.283 321.37 327.813 319.489 328.771C317.349 329.861 314.549 329.861 308.949 329.861H16C10.3995 329.861 7.59921 329.861 5.46009 328.771C3.57847 327.813 2.04867 326.283 1.08993 324.401C0 322.262 0 319.462 0 313.861V16Z" fill="#555555"/>
</mask>
<g mask="url(#mask0_2214_6393)">
<rect x="-72" width="469" height="330" fill="#555555"/>
</g>
</svg>
