<svg width="65" height="31" viewBox="0 0 65 31" fill="none" xmlns="http://www.w3.org/2000/svg">
<path d="M8.4842 30.084C13.4306 30.084 16.9204 27.8253 16.9364 23.388V5.79894H12.23V8.71443H12.038C11.3976 7.30474 9.98894 5.57467 7.0755 5.57467C3.2336 5.57467 0 8.50618 0 14.3852C0 20.1842 3.15356 22.9555 7.0755 22.9395C9.87689 22.9555 11.4136 21.5298 12.038 20.1201H12.2621V23.2919C12.2461 25.7108 10.7733 26.6559 8.58024 26.6559C6.69131 26.6559 5.37866 26.0312 5.12253 24.6375H0.448222C0.720356 27.9214 3.68182 30.084 8.4842 30.084ZM4.86641 14.4493C4.8504 11.4537 6.13103 9.3552 8.54823 9.3552C10.9334 9.3552 12.2621 11.3576 12.2621 14.4493C12.2621 17.541 10.9174 19.3672 8.54823 19.3832C6.14704 19.3672 4.8504 17.4609 4.86641 14.4493Z" fill="url(#paint0_linear_1658_5464)"/>
<path d="M25.3565 0H20.6182V23.1958H25.3565V11.5979V0Z" fill="url(#paint1_linear_1658_5464)"/>
<path d="M36.8502 23.5482C42.1168 23.5322 45.3824 19.9279 45.3985 14.5454C45.3824 9.17899 42.1168 5.57467 36.8502 5.57467C31.5996 5.57467 28.318 9.17899 28.334 14.5454C28.318 19.9279 31.5996 23.5322 36.8502 23.5482ZM33.1364 14.5454C33.1364 11.4857 34.401 9.19501 36.8822 9.19501C39.2994 9.19501 40.5801 11.4857 40.5641 14.5454C40.5801 17.5891 39.2994 19.8478 36.8822 19.8638C34.401 19.8478 33.1364 17.5891 33.1364 14.5454Z" fill="url(#paint2_linear_1658_5464)"/>
<path d="M56.1878 30.084C61.1342 30.084 64.624 27.8253 64.64 23.388V5.79894H59.9336V8.71443H59.7416C59.1012 7.30474 57.6925 5.57467 54.7791 5.57467C50.9372 5.57467 47.7036 8.50618 47.7036 14.3852C47.7036 20.1842 50.8572 22.9555 54.7791 22.9395C57.5805 22.9555 59.1172 21.5298 59.7416 20.1201H59.9657V23.2919C59.9497 25.7108 58.4769 26.6559 56.2838 26.6559C54.3949 26.6559 53.0823 26.0312 52.8261 24.6375H48.1518C48.424 27.9214 51.3854 30.084 56.1878 30.084ZM52.57 14.4493C52.554 11.4537 53.8346 9.3552 56.2518 9.3552C58.637 9.3552 59.9657 11.3576 59.9657 14.4493C59.9657 17.541 58.621 19.3672 56.2518 19.3832C53.8506 19.3672 52.554 17.4609 52.57 14.4493Z" fill="url(#paint3_linear_1658_5464)"/>
<defs>
<linearGradient id="paint0_linear_1658_5464" x1="32.32" y1="-5.66175e-07" x2="41.1627" y2="30.0876" gradientUnits="userSpaceOnUse">
<stop stop-color="#119E6D"/>
<stop offset="1" stop-color="#00FF75"/>
</linearGradient>
<linearGradient id="paint1_linear_1658_5464" x1="32.32" y1="-5.66175e-07" x2="41.1627" y2="30.0876" gradientUnits="userSpaceOnUse">
<stop stop-color="#119E6D"/>
<stop offset="1" stop-color="#00FF75"/>
</linearGradient>
<linearGradient id="paint2_linear_1658_5464" x1="32.32" y1="-5.66175e-07" x2="41.1627" y2="30.0876" gradientUnits="userSpaceOnUse">
<stop stop-color="#119E6D"/>
<stop offset="1" stop-color="#00FF75"/>
</linearGradient>
<linearGradient id="paint3_linear_1658_5464" x1="32.32" y1="-5.66175e-07" x2="41.1627" y2="30.0876" gradientUnits="userSpaceOnUse">
<stop stop-color="#119E6D"/>
<stop offset="1" stop-color="#00FF75"/>
</linearGradient>
</defs>
</svg>
