<svg width="208" height="97" viewBox="0 0 208 97" fill="none" xmlns="http://www.w3.org/2000/svg">
<path d="M27.2419 96.5967C43.1244 96.5967 54.3296 89.3443 54.381 75.0965V18.6198H39.2695V27.9812H38.6527C36.5967 23.4548 32.0735 17.8997 22.7187 17.8997C10.3828 17.8997 0 27.3125 0 46.1895C0 64.8093 10.1258 73.7077 22.7187 73.6563C31.7137 73.7077 36.6481 69.1299 38.6527 64.6036H39.3723V74.7879C39.3209 82.5547 34.5921 85.5894 27.5503 85.5894C21.4851 85.5894 17.2703 83.5834 16.4479 79.1085H1.43919C2.31299 89.6529 11.822 96.5967 27.2419 96.5967ZM15.6255 46.3952C15.5741 36.7767 19.6861 30.0386 27.4475 30.0386C35.1061 30.0386 39.3723 36.4681 39.3723 46.3952C39.3723 56.3224 35.0547 62.1861 27.4475 62.2375C19.7375 62.1861 15.5741 56.0652 15.6255 46.3952Z" fill="url(#paint0_linear_1533_5438)"/>
<path d="M81.4173 0H66.203V74.4793H81.4173V37.2396V0Z" fill="url(#paint1_linear_1533_5438)"/>
<path d="M118.322 75.6109C135.233 75.5594 145.718 63.9863 145.77 46.7039C145.718 29.4728 135.233 17.8997 118.322 17.8997C101.463 17.8997 90.9263 29.4728 90.9777 46.7039C90.9263 63.9863 101.463 75.5594 118.322 75.6109ZM106.398 46.7039C106.398 36.8796 110.458 29.5242 118.425 29.5242C126.187 29.5242 130.299 36.8796 130.247 46.7039C130.299 56.4767 126.187 63.7292 118.425 63.7806C110.458 63.7292 106.398 56.4767 106.398 46.7039Z" fill="url(#paint2_linear_1533_5438)"/>
<path d="M180.413 96.5967C196.296 96.5967 207.501 89.3443 207.552 75.0965V18.6198H192.441V27.9812H191.824C189.768 23.4548 185.245 17.8997 175.89 17.8997C163.554 17.8997 153.171 27.3125 153.171 46.1895C153.171 64.8093 163.297 73.7077 175.89 73.6563C184.885 73.7077 189.82 69.1299 191.824 64.6036H192.544V74.7879C192.492 82.5547 187.764 85.5894 180.722 85.5894C174.657 85.5894 170.442 83.5834 169.619 79.1085H154.611C155.484 89.6529 164.993 96.5967 180.413 96.5967ZM168.797 46.3952C168.746 36.7767 172.858 30.0386 180.619 30.0386C188.278 30.0386 192.544 36.4681 192.544 46.3952C192.544 56.3224 188.226 62.1861 180.619 62.2375C172.909 62.1861 168.746 56.0652 168.797 46.3952Z" fill="url(#paint3_linear_1533_5438)"/>
<defs>
<linearGradient id="paint0_linear_1533_5438" x1="103.776" y1="-1.81793e-06" x2="132.169" y2="96.6081" gradientUnits="userSpaceOnUse">
<stop stop-color="#119E6D"/>
<stop offset="1" stop-color="#00FF75"/>
</linearGradient>
<linearGradient id="paint1_linear_1533_5438" x1="103.776" y1="-1.81793e-06" x2="132.169" y2="96.6081" gradientUnits="userSpaceOnUse">
<stop stop-color="#119E6D"/>
<stop offset="1" stop-color="#00FF75"/>
</linearGradient>
<linearGradient id="paint2_linear_1533_5438" x1="103.776" y1="-1.81793e-06" x2="132.169" y2="96.6081" gradientUnits="userSpaceOnUse">
<stop stop-color="#119E6D"/>
<stop offset="1" stop-color="#00FF75"/>
</linearGradient>
<linearGradient id="paint3_linear_1533_5438" x1="103.776" y1="-1.81793e-06" x2="132.169" y2="96.6081" gradientUnits="userSpaceOnUse">
<stop stop-color="#119E6D"/>
<stop offset="1" stop-color="#00FF75"/>
</linearGradient>
</defs>
</svg>
