<svg width="17" height="14" viewBox="0 0 17 14" fill="none" xmlns="http://www.w3.org/2000/svg">
<path d="M2.10339 7.3073C0.941717 6.14614 0.941719 4.26353 2.10339 3.10237C3.26506 1.9412 5.14849 1.9412 6.31016 3.10237L12.6203 9.40977L8.41355 13.6147L2.10339 7.3073Z" fill="#858585"/>
<path d="M2.10339 7.3073C0.941717 6.14614 0.941719 4.26353 2.10339 3.10237C3.26506 1.9412 5.14849 1.9412 6.31016 3.10237L12.6203 9.40977L8.41355 13.6147L2.10339 7.3073Z" stroke="black"/>
<g filter="url(#filter0_d_2648_6975)">
<path d="M10.5587 3.14519C11.7204 1.98403 13.6038 1.98403 14.7655 3.14519V3.14519C15.9272 4.30635 15.9272 6.18897 14.7655 7.35013L8.45533 13.6575L4.24856 9.4526L10.5587 3.14519Z" fill="#D9D9D9"/>
</g>
<defs>
<filter id="filter0_d_2648_6975" x="2.24902" y="0.274414" width="13.3877" height="13.3831" filterUnits="userSpaceOnUse" color-interpolation-filters="sRGB">
<feFlood flood-opacity="0" result="BackgroundImageFix"/>
<feColorMatrix in="SourceAlpha" type="matrix" values="0 0 0 0 0 0 0 0 0 0 0 0 0 0 0 0 0 0 127 0" result="hardAlpha"/>
<feOffset dx="-1" dy="-1"/>
<feGaussianBlur stdDeviation="0.5"/>
<feComposite in2="hardAlpha" operator="out"/>
<feColorMatrix type="matrix" values="0 0 0 0 0 0 0 0 0 0 0 0 0 0 0 0 0 0 0.25 0"/>
<feBlend mode="normal" in2="BackgroundImageFix" result="effect1_dropShadow_2648_6975"/>
<feBlend mode="normal" in="SourceGraphic" in2="effect1_dropShadow_2648_6975" result="shape"/>
</filter>
</defs>
</svg>
